<svg id="Layer_1" data-name="Layer 1" xmlns="http://www.w3.org/2000/svg" viewBox="0 0 4194.61 5669.29"><defs><style>.cls-1{fill:blue;}.cls-2{fill:#fff;}</style></defs><title>leftArtboard 1</title><path class="cls-1" d="M4195.27,835.28c-62.8,2.41-127.57-5-189.71-13.26A17947.53,17947.53,0,0,1,2176.22,481.84C2297.29,679.58,2423,911.62,2349.4,1131.49c-54.41,162.6-210.34,274.65-375.1,322.09s-425.54,25.8-596.85,18.57c533.31,278.5,863.34,541.76,884.11,999.52s-26,923.21-320.58,1274.19c403.3-316.87,697.31-483.22,1119.86-677,233-106.82,503.81-136.29,692.29,37.41,175.48,161.73,126.31,445.47,63.27,675.63,126.18-161.43,249.9-304.12,378.87-427.71Z"/><path class="cls-2" d="M3387.84,2549a5.42,5.42,0,0,1-4.9-3.12c-12.69-27.2-17-56.9-19.75-84.94-.34-3.49-.66-7-1-10.49-1.76-19.11-3.58-38.88-9-57.29-10-34-33.37-66-65.77-90.24-27.56-20.58-62.59-36.42-104.1-47.1-8.63-2.22-17.54-4.23-26.15-6.17-23-5.19-46.82-10.55-68.81-20.65-47.93-22-87.36-66.67-111-125.8l10-4c22.65,56.55,60.12,99.17,105.51,120,21,9.62,44.21,14.86,66.69,19.93,8.69,2,17.68,4,26.46,6.24,42.88,11,79.18,27.49,107.87,48.91,34.27,25.58,59,59.63,69.67,95.86,5.71,19.41,7.58,39.71,9.39,59.34.32,3.48.64,6.95,1,10.42,2.14,21.84,5.23,44.66,12.64,66.17a1108.51,1108.51,0,0,0,30-242.22,5.4,5.4,0,0,1,9.3-3.66,626.37,626.37,0,0,1,93.7,126.53c.64-34.68,9.5-68.94,18.13-99.18,5.46-19.13,11.56-39.41,20.76-58.65,9.42-19.69,20.23-39.43,30.67-58.52,6.19-11.3,12.59-23,18.53-34.39,12.41-23.77,33-42.45,52.89-60.52,13.31-12.08,27.07-24.57,37.75-38.16,32.32-41.12,49.36-96.55,48-156.07-1.23-53.34-11.53-99.53-57.79-151.54l8.07-7.18c48.45,54.47,59.23,102.75,60.52,158.47,1.43,62-16.44,119.91-50.3,163-11.24,14.3-25.34,27.1-39,39.48-19.2,17.43-39,35.45-50.57,57.52-6,11.49-12.42,23.23-18.63,34.58-10.38,19-21.11,38.57-30.4,58-8.84,18.48-14.79,38.27-20.12,56.95-10.32,36.18-21,78.17-16.84,118.84a5.4,5.4,0,0,1-10.18,3,615.4,615.4,0,0,0-94-135A1119.08,1119.08,0,0,1,3393.07,2545a5.38,5.38,0,0,1-4.73,4.05A4.19,4.19,0,0,1,3387.84,2549Z"/><path class="cls-2" d="M3225.18,1740c-58.49,0-121-36.08-159.49-98.41-54.2-87.81-40.43-195,30.69-238.87s173.09-8.18,227.29,79.63h0c54.2,87.81,40.43,195-30.69,238.87C3272.34,1734,3249.09,1740,3225.18,1740Zm-60.86-345.3c-22,0-43.33,5.53-62.26,17.21-66.06,40.78-78.25,141.27-27.18,224S3221.25,1752.8,3287.3,1712s78.25-141.26,27.18-224C3278,1429,3219.1,1394.69,3164.32,1394.69Z"/><path class="cls-2" d="M3631.42,1675.61c-36.39-59.68-88-108.77-137.88-156.25-9.83-9.35-20-19-31.77-25.61-9.17-5.12-19.93-8.84-34.9-12-11.16-2.39-23-4.13-33.64-.69-8.9,2.87-18.14,11.33-17.73,21.4.45,11.19,12.36,19.49,23.23,22.47,6.19,1.69,12.62,2.41,19.43,3.17,7,.78,14.27,1.58,21.38,3.56,15,4.19,30.43,15.93,30.89,32.73.46,17-13.46,30.63-40.26,39.55l-3.41-10.26c12.46-4.14,33.3-13.41,32.87-29-.31-11.22-12.13-19.59-23-22.61-6.27-1.74-12.78-2.47-19.68-3.24s-14.07-1.57-21.08-3.48c-15-4.12-30.5-15.75-31.18-32.46-.63-15.56,12.21-27.93,25.22-32.11s27.19-2.17,39.21.41c16.07,3.43,27.76,7.5,37.91,13.17,13,7.26,23.64,17.4,33.95,27.21,50.4,48,102.52,97.56,139.65,158.46Z"/><path class="cls-2" d="M2827,1799.8c-.22-34,11.67-66.08,23.17-97.16,6.83-18.44,13.89-37.51,18.26-56.63,3.74-16.41,5.67-33.58,7.54-50.2,1.75-15.63,3.56-31.79,6.89-47.55,2.79-13.22,8-32.5,20.61-47.11,13.18-15.24,32.52-22.22,49.33-17.83a37.24,37.24,0,0,1,23.48,19.74c4.17,8.58,4.58,17.66,1.15,25.58-2.1,4.84-5.28,8.71-8.35,12.45-1.24,1.51-2.49,3-3.64,4.59-9.36,12.81-11.53,30-5.52,43.76,6.13,14,21.19,23.72,35.8,23.06l.51,10.79c-19.22.83-38.23-11.24-46.21-29.53-7.52-17.23-4.89-38.61,6.7-54.45,1.27-1.73,2.64-3.41,4-5.07,2.72-3.32,5.29-6.44,6.79-9.9,2.15-5,1.81-10.86-1-16.56-3.33-6.85-9.65-12.22-16.5-14-14.59-3.83-29.81,4.49-38.42,14.45-11,12.72-15.67,30.22-18.21,42.28-3.22,15.24-5,31.14-6.73,46.51-1.9,16.92-3.86,34.41-7.75,51.41-4.52,19.8-11.7,39.2-18.65,58-11.67,31.55-22.7,61.36-22.5,93.34Z"/><path class="cls-2" d="M3238,1739.6c-18.45-2.67-36-12.06-49.52-26.43-13.31-14.16-26.9-36.66-25.15-57.33,1-11.25,6.23-20.58,15.69-27.72a30.57,30.57,0,0,1,13.91-6.2c10.78-1.62,19.61,3.7,28.16,8.82,6,3.58,11.61,7,17.47,7.76a20.59,20.59,0,0,0,20.4-10.66c3.15-6.2,3-14.12,2.63-21.7l-.06-1.15c-.45-8.47-.92-17.22,2.25-25.7,3.57-9.53,13.17-18.39,24.54-16.9,8.33,1.1,17.47,7.21,27.18,18.16,8.88,10,14.09,22.29,18.4,34.06,6,16.37,11.45,35.62,6.4,54.28l-10.43-2.83c4.27-15.73-.69-33-6.11-47.73-3.95-10.78-8.66-21.95-16.34-30.62s-15-13.88-20.51-14.61-11,4.51-13,10c-2.37,6.37-2,13.63-1.58,21.33l.07,1.17c.47,9,.56,18.58-3.79,27.16A31.4,31.4,0,0,1,3237,1649.2c-8-1.11-14.9-5.22-21.53-9.19-7.25-4.34-14.12-8.45-21-7.41a20.21,20.21,0,0,0-9,4.13c-7,5.3-10.74,11.85-11.43,20-1.46,17.14,11.08,37.12,22.25,49,11.82,12.59,27.17,20.81,43.2,23.13Z"/><path class="cls-2" d="M3161.4,1621.42a5.42,5.42,0,0,1-4.72-2.76c-5.88-10.49-12-21.33-19.88-30.31-5.94-6.73-15.65-15.33-28.17-18-2.71-.58-5.52-.89-8.5-1.22-2.61-.28-5.31-.58-8-1.08a62.81,62.81,0,0,1-15.93-5.26c-13.44-6.46-23.62-17.13-27.93-29.27-5.08-14.32-1.4-30.84,9-40.17l7.23,8c-7.2,6.49-9.67,18.22-6,28.54,3.36,9.47,11.53,17.91,22.42,23.15a53.12,53.12,0,0,0,13.2,4.37c2.33.43,4.72.69,7.25,1a93,93,0,0,1,9.6,1.4c10.64,2.29,21,8.24,30.1,17.3a44,44,0,0,1-1.43-11.06c0-7.49,2.24-14.39,4.39-21.07,2-6.23,3.89-12.12,3.87-18,0-6.29-.09-25.43-7.91-34.08-10.36-11.46-26.74-21.58-41.65-15.62l-4-10c20-8,40.86,4.26,53.66,18.41,9.5,10.51,10.65,28.6,10.7,41.29,0,7.59-2.22,14.58-4.38,21.34-2,6.17-3.86,12-3.88,17.82,0,8.65,4.14,17.46,7.83,25.23a63.31,63.31,0,0,1,4.38,12.12,52.52,52.52,0,0,0,3.69,10.3,5.4,5.4,0,0,1-4.87,7.72Z"/><path class="cls-2" d="M3207.22,1601.87c-9-27.6-19.26-55.15-30.48-81.87l10-4.19c11.34,27,21.69,54.83,30.78,82.71Z"/><path class="cls-2" d="M3211.55,1511.4c-8.54,0-15.94-2.92-21.47-8.49l7.68-7.61c3.69,3.73,8.58,5.51,14.8,5.28,11.48-.42,23.46-7.64,29.37-14.54,2.41-2.83,5.25-7.12,5-11.48-.18-3.11-2-6.58-5.44-10.61-5.87-6.78-15.35-7.75-29.84-3q-2,.63-3.9,1.29c-7.47,2.52-15.18,5.14-23.62,5-10.26-.17-22.7-5.79-25.75-17.72-1.68-6.58,0-14.12,4.67-21.21,9.09-13.73,26.18-22.24,45.72-22.75,8.2-.22,11,3.83,11.9,6.27l-10.08,3.89a1.73,1.73,0,0,0,.71.88,6.79,6.79,0,0,0-2.24-.24c-15.79.41-30,7.28-37,17.91-1.73,2.62-4.45,7.73-3.21,12.57,1.56,6.09,9.13,9.49,15.47,9.6,6.65.14,13.07-2.09,20-4.42,1.34-.45,2.68-.91,4-1.34,6.94-2.25,28.06-9.1,41.34,6.25,5.11,5.9,7.75,11.48,8.07,17.07.35,6.29-2.27,12.89-7.59,19.11-8.8,10.3-24.09,17.83-37.17,18.31Z"/><path class="cls-1" d="M3742,4797.74a17.14,17.14,0,0,0-10.69,4.58c-44.28,49.62-97,106.88-121.39,106.88-2.29,0-3.82-1.53-3.82-4.58,0-16.8,16-52.68,29.78-79.4,10.68-21.38,33.59-70.24,33.59-100,0-20.62-16-32.83-37.41-32.83-40.46,0-80.16,30.54-116.81,73.29,4.58-14.5,6.87-28.25,6.87-36.64,0-17.56-11.45-38.18-33.59-38.18-9.93,0-22.14,4.58-33.59,13-18.33,13.74-65.66,67.95-91.62,98.49h0c-18.34,20.64-95.42,108.4-119.08,108.4-9.17,0-14.51-9.17-14.51-19.85,0-13.75,6.11-37.41,15.27-61.08,27.48-44.28,52.68-97.72,59.55-114.52.76-2.29,2.29-4.58,2.29-7.63,0-5.35-6.11-9.16-9.93-11.45-3-1.53-19.85-8.4-44.28-8.4-67.14,0-138.25,54-172.71,116.41-40.35,44.91-96.28,106.52-115.11,106.52-1.52,0-2.29-2.29-2.29-6.11,0-16.8,14.51-53.44,29-85.51,19.85-46.57,26.72-69.47,26.72-83.21,0-27.49-16-45-43.52-45a80.89,80.89,0,0,0-23.67,3.82c-17.56,6.11-47.33,29.77-77.11,62.6l9.16-26,30.54-35.11,45.81-51.92c45-50.39,84.74-117.57,95.43-145.82,1.53-4.58,2.29-11.45,2.29-17.56,0-19.85-13.74-41.23-35.12-41.23-14.5,0-35.88,12.22-53.44,37.41-20.61,32.83-58.78,113-109.94,238.2-21.37,24.43-46.57,51.92-76.34,87,0,0,0,0,0,.05-42.75,48.09-99.2,107.59-119.05,107.59-12.21,0-15.27-18.32-15.27-30.53,0-38.94,24.44-109.18,42-154.22h81.68a15.31,15.31,0,0,0,15.27-15.27c0-8.4-6.87-14.51-15.27-14.51h-70.23l45.8-109.17a24.61,24.61,0,0,0,1.53-9.16c0-6.87-4.58-14.51-14.5-14.51a15.1,15.1,0,0,0-13.75,9.16s-11.45,24.43-41.22,99.25l-11.46,24.43h-44.28c-8.39,0-15.26,6.11-15.26,14.51a15.31,15.31,0,0,0,15.26,15.27h28.25a440.93,440.93,0,0,1-58.78,77.11s0,0-.05.05c-18.4,20.71-95.4,108.36-119,108.36-9.16,0-14.5-9.17-14.5-19.85,0-13.75,6.1-37.41,15.27-61.08,27.48-44.28,52.67-97.72,59.54-114.52.77-2.29,2.29-4.58,2.29-7.63,0-5.35-6.1-9.16-9.92-11.45-3-1.53-19.85-8.4-44.28-8.4-67.16,0-138.28,54-172.74,116.45-43.91,49.17-95.54,104.95-119.66,104.95-2.29,0-3.81-1.53-3.81-4.58,0-16.8,16-52.68,29.77-79.4,10.69-21.38,33.59-70.24,33.59-100,0-20.62-16-32.83-37.41-32.83-40.46,0-80.16,30.54-116.8,73.29,4.58-14.5,6.87-28.25,6.87-36.64,0-17.56-11.45-38.18-33.59-38.18-9.93,0-22.14,4.58-33.6,13-18.32,13.74-65.65,67.95-91.61,98.49a14.68,14.68,0,0,0-2.38,3.56c-33.56,37.93-59.38,55.22-81.59,55.22h-2.29c21.38-32.83,39.7-70.24,39.7-113,0-22.14-6.87-59.55-38.94-59.55-47.33,0-72.52,77.11-72.52,116,0,29,9.16,53.44,24.43,67.94-16.8,16-42.76,37.41-66.42,37.41-19.09,0-28.25-19.08-28.25-39.7,0-44.28,32.06-111.46,87-148.11,4.58-3.81,6.87-8.39,6.87-13,0-6.87-6.87-14.5-15.27-14.5-2.29,0-6.1,2.29-9.92,3.82-40.1,26.42-68.21,65.95-83.87,104.56-47.76,54.43-83.51,78-124.55,99.28,48.1-116.05,100-244.31,124.44-326.76a135.31,135.31,0,0,0,5.35-38.17c0-57.26-42.76-97-106.12-97-109.94,0-165.67,105.35-165.67,209.18,0,125.21,24,192.77,27.06,198.12s7.64,7.63,12.22,7.63c6.86,0,15.26-6.11,15.26-14.51,0-2.29-1.52-6.1-3.06-9.16-1.51-1.53-20.94-64.5-20.94-182.84,0-84.74,40.46-178.65,135.13-178.65,40.46,0,76.34,23.67,76.34,66.42a113.83,113.83,0,0,1-4.58,30.54c-26.72,90.09-79.4,222.17-135.13,355-38.94,19.08-86.27,41.22-145.06,79.4-49.62,32.06-69.47,71.76-69.47,102.3,0,32.07,23.67,59.55,58.79,59.55,13.74,0,29-3.82,45-13,56.49-32.06,87.8-99.25,133.6-206.9,45.27-22.93,83.4-43.09,127.17-83.67-.28,3.55-.44,7-.44,10.38,0,33.59,17.56,69.48,58,69.48,35.11,0,67.94-24.43,93.14-51.92,6.87,2.29,13.74,3.06,22.14,3.06,39.7,0,74.82-32.07,106.88-67.95a12.4,12.4,0,0,0,2.23-3.31c33.1-37.64,71.35-81.65,84.79-91.36,7.64-5.34,13-7.63,16-7.63,2.29,0,3.05,3.81,3.05,7.63,0,32.07-42,124.44-71.77,179.41-3.81,7.64-4.58,9.93-4.58,13.75,0,9.16,4.58,15.26,15.27,15.26,3.82,0,10.69-.76,13.75-6.1l12.21-22.14c15.27-27.49,43.52-75.59,71.76-111.47,31.31-38.93,70.24-74.82,103.83-74.82,4.59,0,7.64.77,7.64,6.88,0,19.08-17.56,55.73-30.54,84-16.79,36.65-32.83,70.24-32.83,93.15,0,15.27,9.93,32.82,32.83,32.82,27.12,0,64.24-31.87,99.5-68.23-.15,2.4-.26,4.79-.26,7.16,0,35.12,18.33,62.6,55,62.6,33.59,0,63.37-23.67,86.27-49.62,0,25.19,13.74,49.62,44.28,49.62s74.06-45,140.48-117.57c0,0,0,0,0,0l16.77-18.29c-8.4,29.77-12.22,55.73-12.22,75.58,0,29,13,59.55,44.28,59.55,41.23,0,113.76-84.74,140.48-116.81l0,0,19.05-21.34-35.12,88.56c-6.1,14.51-15.27,34.36-15.27,40.47,0,13,15.27,15.27,17.56,15.27,9.16,0,15.27-16.8,20.62-30.54l4.58-13.75c42.75-97.72,119.86-170.25,144.29-177.88a44.57,44.57,0,0,1,15.27-3.05q13.74,0,13.74,16c0,9.16-6.11,32.83-23.67,71-19.08,40.46-32.06,74.82-32.06,97.72,0,16,9.92,35.12,30.54,35.12,24.09,0,60.18-31.92,95.66-69.15-.12,2.19-.23,4.38-.23,6.55,0,35.12,18.32,62.6,55,62.6,33.59,0,63.36-23.67,86.27-49.62,0,25.19,13.74,49.62,44.28,49.62s74.05-45,140.47-117.57l.09-.12c.21-.23.47-.39.67-.64,33.6-38.18,73.29-84,87-93.91,7.63-5.34,13-7.63,16-7.63,2.29,0,3.05,3.81,3.05,7.63,0,32.07-42,124.44-71.76,179.41-3.82,7.64-4.58,9.93-4.58,13.75,0,9.16,4.58,15.26,15.27,15.26,3.81,0,10.69-.76,13.74-6.1l12.21-22.14c15.27-27.49,43.52-75.59,71.77-111.47,31.3-38.93,70.24-74.82,103.83-74.82,4.58,0,7.63.77,7.63,6.88,0,19.08-17.56,55.73-30.53,84-16.8,36.65-32.83,70.24-32.83,93.15,0,15.27,9.92,32.82,32.83,32.82,38.93,0,98.48-65.65,143.52-116,1.53-2.29,3.82-6.87,3.82-9.93C3756.49,4804.61,3751.91,4797.74,3742,4797.74Zm-748.18-304.62c11.45-16.8,20.61-23.67,28.24-23.67,3.82,0,5.35,6.11,5.35,11.45a38.82,38.82,0,0,1-1.53,9.93c-3.82,13-21.38,46.57-55,91.61-14.5,19.85-31.3,39.7-51.91,63.37C2951.82,4568.7,2976.25,4518.31,2993.81,4493.12ZM1411.2,5124.49c-9.93,4.58-22.91,8.4-31.3,8.4-18.33,0-29-11.45-29-29.77,0-21.38,19.09-51.15,56.5-76.35,44.28-29,80.93-49.62,111.46-64.13C1483,5044.33,1451.66,5099.3,1411.2,5124.49Zm417.6-275.6c-11.45-11.46-13.74-32.83-13.74-44.28,0-29,17.56-86.27,42.75-86.27,8.4,0,9.17,21.37,9.17,30.53C1867,4781.7,1848.65,4819.88,1828.8,4848.89Zm513.79,61.84c-16,0-24.43-15.27-24.43-32.07,0-66.42,82.45-161.09,163.38-161.09a104.34,104.34,0,0,1,16,1.53c-12.22,21.38-34.36,60.31-49.63,98.48v-.76C2427.33,4851.94,2383.05,4910.73,2342.59,4910.73Zm770.31,0c-16,0-24.43-15.27-24.43-32.07,0-66.42,82.45-161.09,163.38-161.09a104.22,104.22,0,0,1,16,1.53c-12.21,21.38-34.35,60.31-49.62,98.48v-.76C3197.65,4851.94,3153.37,4910.73,3112.9,4910.73Z"/></svg>