<?xml version="1.0" encoding="utf-8"?>
<!-- Generator: Adobe Illustrator 22.0.1, SVG Export Plug-In . SVG Version: 6.00 Build 0)  -->
<svg version="1.1" id="Layer_1" xmlns="http://www.w3.org/2000/svg" xmlns:xlink="http://www.w3.org/1999/xlink" x="0px" y="0px"
	 viewBox="0 0 4194.6 5669.3" style="enable-background:new 0 0 4194.6 5669.3;" xml:space="preserve">
<style type="text/css">
	.st0{fill:#0000FF;}
	.st1{fill:#FFFFFF;}
</style>
<g>
	<path class="st0" d="M1012.1,4649.7c42.5,1.2,86.1,2.4,129.2,4.7c23.6,1.2,37.8,17.1,37.8,41.9c0,18.3,0.6,36.6-1.8,54.3
		c-6.5,64.3-11.2,128.6-20.1,192.9c-8.3,62-27.7,120.4-46,179.4c-11.2,36.6-30.7,67.8-61.9,92c-37.8,30.1-78.5,31.9-120.4,13.6
		c-16.5-7.1-31.3-18.3-46-28.9c-61.4-45.4-66.7-126.8-40.1-174c6.5-11.8,13-23,24.8-31.9c-3,14.2-6.5,28.3-10,41.9
		c-21.8,87.9,27.1,144.5,105.6,164.6c38.9,10.6,71.4-8.3,93.2-40.1c13.6-19.5,24.2-41.9,31.3-64.9c21.8-69,37.2-139.8,45.4-211.8
		c4.1-35.4,11.2-70.8,15.3-106.2c3-22.4,3-44.8,3-67.8c0-15.9-10.6-25.4-27.1-21.2c-23.6,5.3-47.8,0.6-70.8,5.3
		c-14.8,3-27.1-1.2-38.9-7.1C996.2,4677.5,996.2,4672.1,1012.1,4649.7z"/>
	<path class="st0" d="M1513,4898.7c-18.9,0-18.9,18.9-37.8,18.9c-37.8,18.9-75.5,18.9-113.3,18.9h-56.6c-18.9,0-37.8-18.9-75.5-37.8
		c0-18.9-7.7-27.1,0-37.8c0-18.9,18.9-37.8,18.9-37.8c18.9-37.8,37.8-56.6,56.6-75.5c56.6-18.9,94.4-37.8,132.2-18.9
		c18.9,0,56.6,18.9,75.5,37.8C1531.9,4804.3,1531.9,4842.1,1513,4898.7z M1475.2,4785.4c-18.9-18.9-18.9-18.9-37.8-18.9
		c-18.9,18.9-18.9,18.9-56.6,18.9c0,0,18.9,0,18.9-18.9H1362c-37.8,18.9-75.5,37.8-94.4,94.4c-18.9,18.9,0,18.9,0,37.8
		c75.5,18.9,132.2,18.9,188.8-18.9C1513,4860.9,1513,4804.3,1475.2,4785.4z"/>
	<path class="st0" d="M1720.7,4882.2c39.5,4.1,73.8-3.5,92.6-43.7c25.4-52.5,21.2-82.6-18.3-126.8c3.5-12.4,12.4-11.2,21.2-7.7
		c38.3,16.5,47.2,49,44.2,85.5c-3,33-16.5,64.9-36,91.4c-13.6,18.3-36.6,30.7-56,44.2c-11.8,8.3-26,8.8-38.4,0.6
		c-18.9-11.8-37.2-25.4-51.3-35.4c-14.8-33.6,0.6-67.8-19.5-99.1c-17.7,23-30.1,45.4-32.5,70.8c-2.4,27.7-22.4,47.8-28.9,73.7
		c-1.2,3-10.6,5.3-15.9,4.7c-3,0-8.3-5.9-7.7-8.9c0.6-13,0.6-27.1,4.7-39.5c15.3-40.7,32.5-80.8,49-121.5
		c8.3-20.7,17.7-41.3,26.5-62c3-7.1,5.3-14.2,9.4-20.6c6.5-9.4,12.4-21.2,27.1-19.5c10.6,1.2,15.3,13.6,11.8,34.2
		c-8.8,46.6-3.5,93.2-1.8,139.8C1701.8,4856.2,1705.9,4869.2,1720.7,4882.2z"/>
	<path class="st0" d="M2134.9,4921.1c0,18.9,0,37.8-18.9,56.6c0,0,0,18.9-18.9,37.8c0,0,0,18.9-18.9,18.9h-18.9c0,0,0,0,0-18.9
		v-56.6c0-18.9,0-37.8,0-75.5c-18.9-18.9-37.8-18.9-75.5-18.9c-18.9,18.9-18.9,37.8-18.9,37.8c-18.9,18.9-18.9,37.8-37.8,37.8h-18.9
		c18.9-18.9,18.9-18.9,18.9-37.8c18.9-18.9,18.9-37.8,18.9-56.6v-18.9c37.8-18.9,37.8-37.8,37.8-56.6c37.8-37.8,56.6-94.4,75.5-151
		c18.9-18.9,18.9-18.9,37.8-18.9c18.9,0,18.9,18.9,18.9,37.8s0,18.9-18.9,37.8c0,0-18.9,0-18.9-18.9v18.9
		c-18.9,37.8-18.9,56.6-37.8,75.5s-18.9,37.8-37.8,56.6v37.8c18.9,0,37.8,0,75.5,0c0-56.6,0-94.4,18.9-151v-18.9
		c0,18.9,0,18.9,18.9,37.8v18.9c0,37.8,0,75.5-18.9,113.3c0,18.9,18.9,18.9,18.9,18.9C2134.9,4883.4,2134.9,4902.2,2134.9,4921.1z
		 M2116,4902.2h-18.9c0,18.9,0,18.9,0,37.8v18.9c18.9,0,18.9-18.9,0-18.9C2097.1,4921.1,2116,4921.1,2116,4902.2z"/>
	<path class="st0" d="M2276.5,4675.1c18.9-18.9,18.9-18.9,18.9-37.8h18.9v37.8h18.9h75.5c18.9,18.9,37.8,18.9,56.6,18.9v18.9h-151
		c0,18.9-18.9,37.8-18.9,56.6v132.2c0,0,0,18.9,0,37.8l-18.9,18.9c-18.9-18.9-18.9-18.9-18.9-37.8v-56.6
		c0-56.6,18.9-94.4,18.9-132.2c-18.9-18.9-37.8-18.9-56.6-18.9h-18.9c-18.9,0-18.9-18.9-18.9-18.9c0-18.9,0-18.9,18.9-18.9
		c18.9,0,37.8,0,56.6,0H2276.5z"/>
	<path class="st0" d="M2527.8,4888.7c-8.3-11.8-15.9-17.7-15.3-22.4c1.8-18.3,4.7-36,10-53.1c6.5-23,15.9-45.4,4.1-70.8
		c28.9-21.8,42.5-51.3,53.7-82.6c8.3-22.4,21.2-43.1,33-64.3c2.4-4.1,7.7-7.7,16.5-15.3c0,51.9-28.9,90.3-36.6,136.3h107.4
		c15.9-31.9,26.5-64.9,47.2-92.6c13.6,5.3,15.3,15.3,13,26c-3.5,13-8.8,25.4-13,38.3c-3.5,10-9.4,19.5-10,29.5
		c-1.8,14.7-5.9,26-18.9,33.6c-3.5,2.4-6.5,7.1-7.7,10.6c-13.6,36.6-30.7,72-37.2,113.9c9.4-0.6,17.1-0.6,27.7-1.2
		c-15.9,21.8-30.1,42.5-45.4,62c-2.4,3.5-11.2,5.9-15.3,4.1c-4.1-1.2-10-8.9-9.4-13c2.4-21.8,5.3-44.2,11.8-66.1
		c8.8-30.1,20.7-59.6,31.3-89.1c2.4-7.1,3.5-14.2,5.9-21.8c-38.3-5.9-73.2,0-110.3,10.6c-5.9,17.7-17.7,34.2-10,54.9
		c1.2,4.1,0,9.4-1.8,13L2527.8,4888.7z"/>
	<path class="st0" d="M3035.2,4921.1c0,18.9,0,37.8-18.9,56.6c0,0,0,18.9-18.9,37.8c0,0,0,18.9-18.9,18.9h-18.9c0,0,0,0,0-18.9
		v-56.6c0-18.9,0-37.8,0-75.5c-18.9-18.9-37.8-18.9-75.5-18.9c-18.9,18.9-18.9,37.8-18.9,37.8c-18.9,18.9-18.9,37.8-37.8,37.8h-18.9
		c18.9-18.9,18.9-18.9,18.9-37.8c18.9-18.9,18.9-37.8,18.9-56.6v-18.9c37.8-18.9,37.8-37.8,37.8-56.6c37.8-37.8,56.6-94.4,75.5-151
		c18.9-18.9,18.9-18.9,37.8-18.9c18.9,0,18.9,18.9,18.9,37.8s0,18.9-18.9,37.8c0,0-18.9,0-18.9-18.9v18.9
		c-18.9,37.8-18.9,56.6-37.8,75.5c-18.9,18.9-18.9,37.8-37.8,56.6v37.8c18.9,0,37.8,0,75.5,0c0-56.6,0-94.4,18.9-151v-18.9
		c0,18.9,0,18.9,18.9,37.8v18.9c0,37.8,0,75.5-18.9,113.3c0,18.9,18.9,18.9,18.9,18.9C3035.2,4883.4,3035.2,4902.2,3035.2,4921.1z
		 M3016.3,4902.2h-18.9c0,18.9,0,18.9,0,37.8v18.9c18.9,0,18.9-18.9,0-18.9C2997.4,4921.1,3016.3,4921.1,3016.3,4902.2z"/>
	<path class="st0" d="M3228.7,4882.2c39.5,4.1,73.8-3.5,92.6-43.7c25.4-52.5,21.2-82.6-18.3-126.8c3.5-12.4,12.4-11.2,21.2-7.7
		c38.3,16.5,47.2,49,44.2,85.5c-3,33-16.5,64.9-36,91.4c-13.6,18.3-36.6,30.7-56,44.2c-11.8,8.3-26,8.8-38.3,0.6
		c-18.9-11.8-37.2-25.4-51.3-35.4c-14.8-33.6,0.6-67.8-19.5-99.1c-17.7,23-30.1,45.4-32.4,70.8c-2.4,27.7-22.4,47.8-28.9,73.7
		c-1.2,3-10.6,5.3-15.9,4.7c-2.9,0-8.3-5.9-7.7-8.9c0.6-13,0.6-27.1,4.7-39.5c15.3-40.7,32.4-80.8,49-121.5
		c8.3-20.7,17.7-41.3,26.6-62c2.9-7.1,5.3-14.2,9.4-20.6c6.5-9.4,12.4-21.2,27.1-19.5c10.6,1.2,15.3,13.6,11.8,34.2
		c-8.8,46.6-3.5,93.2-1.8,139.8C3209.8,4856.2,3214,4869.2,3228.7,4882.2z"/>
</g>
<title>leftArtboard 1</title>
<path class="st0" d="M4195.3,835.3c-62.8,2.4-127.6-5-189.7-13.3c-615.3-81.7-1225.9-195.2-1829.3-340.2
	c121.1,197.7,246.8,429.8,173.2,649.7c-54.4,162.6-210.3,274.7-375.1,322.1s-425.5,25.8-596.8,18.6
	c533.3,278.5,863.3,541.8,884.1,999.5s-26,923.2-320.6,1274.2c403.3-316.9,697.3-483.2,1119.9-677c233-106.8,503.8-136.3,692.3,37.4
	c175.5,161.7,126.3,445.5,63.3,675.6c126.2-161.4,249.9-304.1,378.9-427.7V835.3z"/>
<path class="st1" d="M3387.8,2549c-2.1,0-4-1.2-4.9-3.1c-12.7-27.2-17-56.9-19.8-84.9c-0.3-3.5-0.7-7-1-10.5
	c-1.8-19.1-3.6-38.9-9-57.3c-10-34-33.4-66-65.8-90.2c-27.6-20.6-62.6-36.4-104.1-47.1c-8.6-2.2-17.5-4.2-26.1-6.2
	c-23-5.2-46.8-10.6-68.8-20.6c-47.9-22-87.4-66.7-111-125.8l10-4c22.6,56.6,60.1,99.2,105.5,120c21,9.6,44.2,14.9,66.7,19.9
	c8.7,2,17.7,4,26.5,6.2c42.9,11,79.2,27.5,107.9,48.9c34.3,25.6,59,59.6,69.7,95.9c5.7,19.4,7.6,39.7,9.4,59.3
	c0.3,3.5,0.6,6.9,1,10.4c2.1,21.8,5.2,44.7,12.6,66.2c18.9-79.4,28.9-160.6,30-242.2c0-3,2.5-5.4,5.5-5.3c1.4,0,2.8,0.6,3.8,1.7
	c36.4,38.1,67.9,80.6,93.7,126.5c0.6-34.7,9.5-68.9,18.1-99.2c5.5-19.1,11.6-39.4,20.8-58.6c9.4-19.7,20.2-39.4,30.7-58.5
	c6.2-11.3,12.6-23,18.5-34.4c12.4-23.8,33-42.4,52.9-60.5c13.3-12.1,27.1-24.6,37.8-38.2c32.3-41.1,49.4-96.6,48-156.1
	c-1.2-53.3-11.5-99.5-57.8-151.5l8.1-7.2c48.4,54.5,59.2,102.8,60.5,158.5c1.4,62-16.4,119.9-50.3,163c-11.2,14.3-25.3,27.1-39,39.5
	c-19.2,17.4-39,35.4-50.6,57.5c-6,11.5-12.4,23.2-18.6,34.6c-10.4,19-21.1,38.6-30.4,58c-8.8,18.5-14.8,38.3-20.1,56.9
	c-10.3,36.2-21,78.2-16.8,118.8c0.3,3-1.9,5.6-4.8,5.9c-2.2,0.2-4.3-0.9-5.3-2.9c-25.2-49-56.8-94.4-94-135
	c-2.1,83.6-13.5,166.6-34,247.6c-0.6,2.2-2.5,3.8-4.7,4.1C3388.2,2549,3388,2549,3387.8,2549z"/>
<path class="st1" d="M3225.2,1740c-58.5,0-121-36.1-159.5-98.4c-54.2-87.8-40.4-195,30.7-238.9s173.1-8.2,227.3,79.6l0,0
	c54.2,87.8,40.4,195-30.7,238.9C3272.3,1734,3249.1,1740,3225.2,1740z M3164.3,1394.7c-22,0-43.3,5.5-62.3,17.2
	c-66.1,40.8-78.2,141.3-27.2,224s146.4,116.9,212.4,76.1s78.2-141.3,27.2-224C3278,1429,3219.1,1394.7,3164.3,1394.7L3164.3,1394.7z
	"/>
<path class="st1" d="M3631.4,1675.6c-36.4-59.7-88-108.8-137.9-156.2c-9.8-9.3-20-19-31.8-25.6c-9.2-5.1-19.9-8.8-34.9-12
	c-11.2-2.4-23-4.1-33.6-0.7c-8.9,2.9-18.1,11.3-17.7,21.4c0.4,11.2,12.4,19.5,23.2,22.5c6.2,1.7,12.6,2.4,19.4,3.2
	c7,0.8,14.3,1.6,21.4,3.6c15,4.2,30.4,15.9,30.9,32.7c0.5,17-13.5,30.6-40.3,39.6l-3.4-10.3c12.5-4.1,33.3-13.4,32.9-29
	c-0.3-11.2-12.1-19.6-23-22.6c-6.3-1.7-12.8-2.5-19.7-3.2s-14.1-1.6-21.1-3.5c-15-4.1-30.5-15.8-31.2-32.5
	c-0.6-15.6,12.2-27.9,25.2-32.1s27.2-2.2,39.2,0.4c16.1,3.4,27.8,7.5,37.9,13.2c13,7.3,23.6,17.4,33.9,27.2
	c50.4,48,102.5,97.6,139.6,158.5L3631.4,1675.6z"/>
<path class="st1" d="M2827,1799.8c-0.2-34,11.7-66.1,23.2-97.2c6.8-18.4,13.9-37.5,18.3-56.6c3.7-16.4,5.7-33.6,7.5-50.2
	c1.8-15.6,3.6-31.8,6.9-47.6c2.8-13.2,8-32.5,20.6-47.1c13.2-15.2,32.5-22.2,49.3-17.8c10.3,2.9,18.9,10.1,23.5,19.7
	c4.2,8.6,4.6,17.7,1.1,25.6c-2.1,4.8-5.3,8.7-8.4,12.4c-1.2,1.5-2.5,3-3.6,4.6c-9.4,12.8-11.5,30-5.5,43.8
	c6.1,14,21.2,23.7,35.8,23.1l0.5,10.8c-19.2,0.8-38.2-11.2-46.2-29.5c-7.5-17.2-4.9-38.6,6.7-54.4c1.3-1.7,2.6-3.4,4-5.1
	c2.7-3.3,5.3-6.4,6.8-9.9c2.1-5,1.8-10.9-1-16.6c-3.3-6.8-9.6-12.2-16.5-14c-14.6-3.8-29.8,4.5-38.4,14.4
	c-11,12.7-15.7,30.2-18.2,42.3c-3.2,15.2-5,31.1-6.7,46.5c-1.9,16.9-3.9,34.4-7.8,51.4c-4.5,19.8-11.7,39.2-18.6,58
	c-11.7,31.6-22.7,61.4-22.5,93.3L2827,1799.8z"/>
<path class="st1" d="M3238,1739.6c-18.4-2.7-36-12.1-49.5-26.4c-13.3-14.2-26.9-36.7-25.1-57.3c1-11.2,6.2-20.6,15.7-27.7
	c4-3.2,8.8-5.3,13.9-6.2c10.8-1.6,19.6,3.7,28.2,8.8c6,3.6,11.6,7,17.5,7.8c8.3,0.9,16.4-3.3,20.4-10.7c3.1-6.2,3-14.1,2.6-21.7
	l-0.1-1.2c-0.4-8.5-0.9-17.2,2.2-25.7c3.6-9.5,13.2-18.4,24.5-16.9c8.3,1.1,17.5,7.2,27.2,18.2c8.9,10,14.1,22.3,18.4,34.1
	c6,16.4,11.4,35.6,6.4,54.3l-10.4-2.8c4.3-15.7-0.7-33-6.1-47.7c-3.9-10.8-8.7-21.9-16.3-30.6s-15-13.9-20.5-14.6s-11,4.5-13,10
	c-2.4,6.4-2,13.6-1.6,21.3l0.1,1.2c0.5,9,0.6,18.6-3.8,27.2c-6.1,11.5-18.7,18-31.6,16.4c-8-1.1-14.9-5.2-21.5-9.2
	c-7.2-4.3-14.1-8.4-21-7.4c-3.3,0.6-6.4,2-9,4.1c-7,5.3-10.7,11.8-11.4,20c-1.5,17.1,11.1,37.1,22.2,49
	c11.8,12.6,27.2,20.8,43.2,23.1L3238,1739.6z"/>
<path class="st1" d="M3161.4,1621.4c-2,0-3.8-1.1-4.7-2.8c-5.9-10.5-12-21.3-19.9-30.3c-5.9-6.7-15.6-15.3-28.2-18
	c-2.7-0.6-5.5-0.9-8.5-1.2c-2.6-0.3-5.3-0.6-8-1.1c-5.5-1-10.9-2.8-15.9-5.3c-13.4-6.5-23.6-17.1-27.9-29.3
	c-5.1-14.3-1.4-30.8,9-40.2l7.2,8c-7.2,6.5-9.7,18.2-6,28.5c3.4,9.5,11.5,17.9,22.4,23.2c4.2,2,8.6,3.5,13.2,4.4
	c2.3,0.4,4.7,0.7,7.2,1c3.2,0.3,6.4,0.8,9.6,1.4c10.6,2.3,21,8.2,30.1,17.3c-0.9-3.6-1.4-7.3-1.4-11.1c0-7.5,2.2-14.4,4.4-21.1
	c2-6.2,3.9-12.1,3.9-18c0-6.3-0.1-25.4-7.9-34.1c-10.4-11.5-26.7-21.6-41.6-15.6l-4-10c20-8,40.9,4.3,53.7,18.4
	c9.5,10.5,10.6,28.6,10.7,41.3c0,7.6-2.2,14.6-4.4,21.3c-2,6.2-3.9,12-3.9,17.8c0,8.7,4.1,17.5,7.8,25.2c1.9,3.9,3.3,7.9,4.4,12.1
	c0.9,3.6,2.1,7,3.7,10.3c1.3,2.7,0.1,5.9-2.6,7.2C3163.1,1621.3,3162.3,1621.5,3161.4,1621.4L3161.4,1621.4z"/>
<path class="st1" d="M3207.2,1601.9c-9-27.6-19.3-55.2-30.5-81.9l10-4.2c11.3,27,21.7,54.8,30.8,82.7L3207.2,1601.9z"/>
<path class="st1" d="M3211.6,1511.4c-8.5,0-15.9-2.9-21.5-8.5l7.7-7.6c3.7,3.7,8.6,5.5,14.8,5.3c11.5-0.4,23.5-7.6,29.4-14.5
	c2.4-2.8,5.2-7.1,5-11.5c-0.2-3.1-2-6.6-5.4-10.6c-5.9-6.8-15.4-7.8-29.8-3c-1.3,0.4-2.6,0.9-3.9,1.3c-7.5,2.5-15.2,5.1-23.6,5
	c-10.3-0.2-22.7-5.8-25.8-17.7c-1.7-6.6,0-14.1,4.7-21.2c9.1-13.7,26.2-22.2,45.7-22.8c8.2-0.2,11,3.8,11.9,6.3l-10.1,3.9
	c0.1,0.4,0.4,0.7,0.7,0.9c-0.7-0.2-1.5-0.3-2.2-0.2c-15.8,0.4-30,7.3-37,17.9c-1.7,2.6-4.4,7.7-3.2,12.6c1.6,6.1,9.1,9.5,15.5,9.6
	c6.6,0.1,13.1-2.1,20-4.4c1.3-0.4,2.7-0.9,4-1.3c6.9-2.2,28.1-9.1,41.3,6.2c5.1,5.9,7.8,11.5,8.1,17.1c0.4,6.3-2.3,12.9-7.6,19.1
	c-8.8,10.3-24.1,17.8-37.2,18.3L3211.6,1511.4z"/>
</svg>
