<?xml version="1.0" encoding="utf-8"?>
<!-- Generator: Adobe Illustrator 22.0.1, SVG Export Plug-In . SVG Version: 6.00 Build 0)  -->
<svg version="1.1" id="Layer_1" xmlns="http://www.w3.org/2000/svg" xmlns:xlink="http://www.w3.org/1999/xlink" x="0px" y="0px"
	 viewBox="0 0 4194 5669.3" style="enable-background:new 0 0 4194 5669.3;" xml:space="preserve">
<style type="text/css">
	.st0{fill:#0000FF;}
	.st1{fill:#FFFFFF;}
</style>
<title>rightArtboard 1</title>
<path class="st0" d="M2359.3,1978.1c131.4-29.4,264.5-50.5,398.5-63.1c-238-72.5-391.8-139.5-584.6-232.5
	c-120.6-58.2-250.7-183.7-267.3-316.6c-10.1-80.6,28.9-159.1,74.4-226.3c123.6-182.4,305.8-324.5,512.8-400
	c-392.4,142.1-808,253.5-1223.2,211.5c-197.7-20-393.3-79.3-566.1-177.9C540,679.7,463.6,615.9,298,422.3
	c30.5,131.5,8.8,291-119,365.8c-54.9,32.1-116.5,44.7-180.2,47.1v2519c215.7-206.7,446.1-359.9,727.2-458.1
	c437.9-152.9,906.4,376,1303.5,615.7c-74.1-80-237.7-406.9-176.4-622.9c31.8-112.2,253.1-204.5,361.9-162.4
	c-143.3-112.9-302.3-264.4-269.3-443.7C1978.5,2103.8,2181.8,2017.9,2359.3,1978.1z"/>
<path class="st1" d="M1024.2,1814.8c-49.2,0-93.9-19.6-120.1-57.8c-47.3-68.9-16.6-172.5,68.5-230.9s192.8-49.9,240.1,19
	s16.6,172.5-68.4,230.9l0,0C1106.2,1802.1,1063.8,1814.8,1024.2,1814.8z M1092.6,1498.1c-37.5,0-77.8,12.1-114,37
	c-80.2,55-109.6,151.9-65.7,215.9s144.9,71.3,225.1,16.2l0,0c80.2-55.1,109.6-151.9,65.7-215.9
	C1179.6,1516.1,1138.2,1498.1,1092.6,1498.1z"/>
<path class="st1" d="M854.2,1551.6c-21.5-18.3-29.2-36.3-22.4-51.8c6.8-15.4,25.4-20.5,40.9-18.7c7.3,0.8,14.4,2.8,21.2,4.8
	c6.6,1.9,12.8,3.6,19.2,4.4c11.2,1.3,25.3-1.9,30-12.1c4.2-9.2-1.2-20.5-8.4-26.5c-8.6-7.2-20.7-10.1-31.4-12
	c-15.1-2.7-26.4-3.3-36.9-2c-13.4,1.7-26.5,6.8-39.1,11.8c-64.1,25.2-130.4,51.2-186.6,92.8l-6.4-8.7c57.3-42.4,124.3-68.8,189-94.2
	c13.2-5.2,27-10.6,41.7-12.4c11.5-1.4,23.9-0.8,40.1,2.1c12.1,2.1,25.9,5.5,36.5,14.4s17.7,25.1,11.3,39.2
	c-6.9,15.2-25.7,20.2-41.1,18.3c-7.2-0.9-14.2-2.8-20.8-4.7s-13-3.7-19.5-4.4c-11.2-1.3-25.3,2-29.8,12.3
	c-6.3,14.3,9.5,30.7,19.5,39.2L854.2,1551.6z"/>
<path class="st1" d="M1276.4,2031.9l-10-4.1c12.2-29.6,13.2-61.3,14.3-94.9c0.6-20,1.3-40.7,4.6-60.7c2.8-17.2,7.6-34.2,12.2-50.5
	c4.2-14.9,8.5-30.3,11.3-45.6c2.2-12.1,4.5-30.1-1-46c-4.2-12.5-15.2-25.9-30.2-27.9c-7.5-0.7-15,1.7-20.6,6.8
	c-4.7,4.2-7.2,9.6-7.1,15c0.1,3.8,1.3,7.6,2.6,11.7c0.6,2.1,1.3,4.1,1.8,6.2c4.8,19-0.8,39.8-14.3,53c-14.3,13.9-36.4,18-53.9,10
	l4.5-9.8c13.3,6.1,30.9,2.8,41.8-7.9c10.8-10.5,15.2-27.2,11.4-42.6c-0.5-1.9-1.1-3.8-1.6-5.6c-1.4-4.6-2.9-9.4-3.1-14.7
	c-0.2-8.6,3.6-16.9,10.7-23.2c7.9-7.2,18.5-10.7,29.2-9.5c17.2,2.2,32.5,16,39,35.1c6.2,18.3,3.7,38.1,1.3,51.4
	c-2.8,15.8-7.2,31.5-11.5,46.6c-4.5,16.1-9.2,32.7-11.9,49.3c-3.2,19.3-3.8,39.7-4.4,59.3
	C1290.4,1966.3,1289.4,2000.5,1276.4,2031.9z"/>
<path class="st1" d="M971.1,1803c-4.2,0-8.3-0.4-12.4-1.3l2.3-10.6c15.9,3.5,32.9-2.3,47.4-8.4c10.6-4.5,21.5-9.7,29.8-17.8
	s13.1-15.7,13.6-21.2s-5-10.7-10.6-12.5c-6.5-2.1-13.7-1.3-21.4-0.5l-1.2,0.1c-9,0.9-18.5,1.5-27.3-2.5c-11.7-5.5-18.9-17.7-18-30.7
	c0.7-8.1,4.5-15.2,8.1-22c4-7.4,7.7-14.5,6.4-21.4c-0.8-3.3-2.3-6.3-4.6-8.8c-5.6-6.7-12.3-10.2-20.6-10.4
	c-17.2-0.6-36.5,12.9-47.9,24.6c-12,12.4-19.5,28.2-21,44.3L883,1703c1.8-18.6,10.3-36.6,24-50.8c13.2-13.6,34.2-27.9,54.5-27.9
	c0.5,0,1,0,1.5,0c11.3,0.4,20.9,5.2,28.5,14.3c3.4,3.9,5.8,8.6,6.9,13.6c2.1,10.7-2.7,19.8-7.4,28.6c-3.3,6.1-6.4,11.9-6.9,17.8
	c-0.5,8.4,4.1,16.2,11.6,19.8c6.4,2.8,14.3,2.3,21.8,1.6l1.2-0.1c8.4-0.9,17.1-1.8,25.8,1c9.7,3.1,19,12.2,18.1,23.7
	c-0.7,8.4-6.3,17.8-16.8,28c-9.6,9.3-21.6,15.2-33.1,20C1000,1798,985.7,1803,971.1,1803z"/>
<path class="st1" d="M1002.8,1625.9c-3,0-5.4-2.4-5.4-5.4c0-1.9,1-3.7,2.6-4.6c10.2-6.4,20.7-13,29.3-21.3
	c6.4-6.3,14.6-16.4,16.6-29c0.4-2.8,0.7-5.7,0.8-8.6c0.2-2.6,0.3-5.3,0.7-8.1c0.8-5.6,2.3-11,4.5-16.2c5.8-13.7,16-24.4,27.9-29.3
	c14.1-5.8,30.7-2.9,40.6,7l-7.7,7.6c-6.8-6.9-18.7-8.8-28.8-4.6c-9.3,3.8-17.3,12.4-22,23.5c-1.8,4.3-3.1,8.8-3.7,13.4
	c-0.3,2.3-0.5,4.7-0.6,7.3c-0.1,3.2-0.4,6.5-0.9,9.7c-1.8,10.7-7.2,21.3-15.8,30.9c3.6-1.1,7.3-1.8,11-2c7.5-0.3,14.5,1.5,21.3,3.4
	c6.3,1.7,12.3,3.3,18.2,3c6.3-0.3,25.4-1.3,33.7-9.6c10.9-10.9,20.2-27.8,13.6-42.3l9.8-4.5c9,19.6-2.3,41-15.8,54.5
	c-10,10-28,12-40.7,12.7c-7.6,0.4-14.7-1.5-21.5-3.3c-6.2-1.7-12.2-3.3-18-3c-8.6,0.4-17.2,5-24.8,9.1c-3.8,2.1-7.8,3.7-11.9,5
	c-3.5,1-6.9,2.5-10.1,4.2C1004.5,1625.7,1003.6,1625.9,1002.8,1625.9z"/>
<path class="st1" d="M1023,1675.6l-3.8-10.1c27.1-10.3,54.1-21.9,80.3-34.4l4.7,9.8C1077.6,1653.5,1050.3,1665.2,1023,1675.6z"/>
<path class="st1" d="M1147.2,1709.9c-5.6,0-11.6-2.3-17.3-6.8c-10.7-8.3-19-23.2-20.1-36.2c-0.8-9.1,1.8-17.1,7.3-23.2l8,7.3
	c-3.5,3.9-5.1,8.9-4.6,15c1,11.4,8.8,23.1,16,28.6c2.9,2.3,7.3,4.9,11.7,4.4c3.1-0.3,6.5-2.3,10.3-6c6.5-6.2,7-15.7,1.6-30
	c-0.5-1.3-1-2.6-1.5-3.8c-2.9-7.3-5.9-14.9-6.1-23.3c-0.3-10.3,4.7-23,16.4-26.6c6.5-2,14.1-0.7,21.4,3.6
	c14.2,8.4,23.5,25.1,25,44.6c0.6,8.1-3.3,11.1-5.7,12.2l-4.4-9.9c-0.4,0.2-0.7,0.4-0.8,0.8c0.2-0.7,0.2-1.5,0.1-2.2
	c-1.2-15.8-8.7-29.6-19.7-36.1c-4.6-2.7-9.2-3.7-12.7-2.6c-6,1.8-9,9.6-8.8,15.9c0.2,6.6,2.7,13,5.4,19.8c0.5,1.3,1,2.6,1.5,3.9
	c2.6,6.8,10.5,27.6-4.2,41.6c-5.7,5.4-11.1,8.3-16.7,8.9C1148.7,1709.8,1148,1709.8,1147.2,1709.9z"/>
<path class="st1" d="M834.8,2549c-0.2,0-0.3,0-0.5,0c-2.3-0.2-4.2-1.8-4.7-4.1c-20.6-81-32-164.1-34.1-247.6
	c-37.2,40.6-68.8,86-94,135c-1.4,2.7-4.6,3.7-7.3,2.3c-2-1-3.1-3.1-2.9-5.3c4.2-40.7-6.5-82.7-16.8-118.8
	c-5.3-18.7-11.3-38.5-20.1-56.9c-9.3-19.4-20-39.1-30.4-58c-6.2-11.4-12.6-23.1-18.6-34.6c-11.5-22.1-31.4-40.1-50.6-57.5
	c-13.6-12.4-27.7-25.2-39-39.5c-33.9-43.1-51.7-101-50.3-163c1.3-55.7,12.1-104,60.5-158.5l8.1,7.2c-46.3,52-56.6,98.2-57.8,151.5
	c-1.4,59.5,15.7,115,48,156.1c10.7,13.6,24.4,26.1,37.7,38.2c20,18.1,40.5,36.8,53,60.5c6,11.4,12.3,23.1,18.5,34.4
	c10.5,19.1,21.3,38.8,30.7,58.5c9.2,19.2,15.3,39.5,20.8,58.6c8.6,30.2,17.5,64.5,18.1,99.2c25.8-45.9,57.3-88.5,93.7-126.5
	c2.1-2.2,5.5-2.2,7.6-0.2c1,1,1.6,2.4,1.7,3.8c1.1,81.6,11.1,162.8,30,242.2c7.4-21.5,10.5-44.3,12.6-66.2c0.3-3.5,0.7-6.9,1-10.4
	c1.8-19.6,3.7-39.9,9.4-59.3c10.7-36.2,35.4-70.3,69.7-95.9c28.7-21.4,65-37.9,107.9-48.9c8.8-2.2,17.8-4.3,26.5-6.2
	c22.5-5.1,45.7-10.3,66.7-19.9c45.4-20.8,82.9-63.4,105.5-120l10,4c-23.7,59.1-63.1,103.8-111,125.8c-22,10.1-45.8,15.5-68.8,20.6
	c-8.6,1.9-17.5,3.9-26.2,6.2c-41.5,10.7-76.5,26.5-104.1,47.1c-32.4,24.2-55.8,56.2-65.8,90.2c-5.4,18.4-7.2,38.2-9,57.3
	c-0.3,3.5-0.6,7-1,10.5c-2.8,28-7.1,57.7-19.8,84.9C838.8,2547.8,836.9,2549,834.8,2549z"/>
<g>
	<path class="st0" d="M1017.1,4888.7c-8.3-11.8-15.9-17.7-15.3-22.4c1.8-18.3,4.7-36,10-53.1c6.5-23,15.9-45.4,4.1-70.8
		c28.9-21.8,42.5-51.3,53.7-82.6c8.3-22.4,21.2-43.1,33-64.3c2.4-4.1,7.7-7.7,16.5-15.3c0,51.9-28.9,90.3-36.6,136.3H1190
		c15.9-31.9,26.5-64.9,47.2-92.6c13.6,5.3,15.3,15.3,13,26c-3.5,13-8.8,25.4-13,38.3c-3.5,10-9.4,19.5-10,29.5
		c-1.8,14.7-5.9,26-18.9,33.6c-3.5,2.4-6.5,7.1-7.7,10.6c-13.6,36.6-30.7,72-37.2,113.9c9.4-0.6,17.1-0.6,27.7-1.2
		c-15.9,21.8-30.1,42.5-45.4,62c-2.4,3.5-11.2,5.9-15.3,4.1c-4.1-1.2-10-8.9-9.4-13c2.4-21.8,5.3-44.2,11.8-66.1
		c8.8-30.1,20.6-59.6,31.3-89.1c2.4-7.1,3.5-14.2,5.9-21.8c-38.3-5.9-73.2,0-110.3,10.6c-5.9,17.7-17.7,34.2-10,54.9
		c1.2,4.1,0,9.4-1.8,13L1017.1,4888.7z"/>
	<path class="st0" d="M1390,4679.2c0,16.5,1.8,26-0.6,34.2c-8.8,27.1-18.3,54.3-28.9,80.8c-14.2,34.8-27.1,70.2-22.4,108
		c2.4,18.9-11.2,25.4-19.5,36c-4.7,7.1-19.5,0-20.1-9.4c-0.6-10.6-1.2-21.2,0.6-31.3c13-72,37.2-139.8,76.1-201.8
		C1377.6,4692.2,1381.2,4689.3,1390,4679.2z M1370.5,4581.9c4.7-4.1,8.3-10.6,12.4-11.2c8.3-0.6,16.5,1.2,24.8,2.4
		c1.8,0,4.1,5.3,3.5,7.1c-1.2,4.1-3.5,8.8-7.1,10.6C1398.9,4593.7,1398.3,4593.1,1370.5,4581.9z"/>
	<path class="st0" d="M1712.7,4894.6l-11.8,36c-21.2,11.2-41.9,8.3-60.8,3.5c-38.9-10.6-77.9-23.6-112.1-46.6
		c-21.8-14.2-40.1-30.7-54.3-53.1c-19.5-32.4-21.2-64.9-1.2-97.9c35.4-59,87.3-97.3,152.8-119.2c19.5-6.5,38.4-4.7,56.6,4.1
		c13,6.5,17.1,16.5,13,30.1c-6.5,20.7-19.5,37.8-35.4,51.3c-19.5,16.5-40.7,30.7-60.8,46.6c-19.5,15.9-43.7,24.2-62.5,42.5
		c-11.2,11.2-28.9,14.2-44.2,20.7c12.4,15.9,28.3,28.9,36.6,49.6c7.1,18.3,27.7,24.2,46,24.2c24.8,0,47.2,6.5,70.8,12.4
		C1666.1,4904,1686.8,4905.8,1712.7,4894.6z M1486.8,4781.3c1.2,10,3.5,20.1,5.3,30.1c3.5-8.8,5.3-19.5,11.8-26.5
		c12.4-13,26.5-24.2,40.7-35.4c31.9-24.8,64.9-48.4,96.2-73.8c7.7-5.9,12.4-15.3,18.9-23.6c-21.8-17.7-44.2-8.8-61.4-2.4
		c-15.9,6.5-36.6,10-45.4,33c-6.5,17.1-22.4,30.7-40.1,41.3C1491.5,4736.5,1483.8,4757.1,1486.8,4781.3z"/>
	<path class="st0" d="M1956.4,4921.7c-49.6,7.7-96.8,18.3-145.1,16.5c-11.2-0.6-23.6-4.1-34.2-8.8c-11.8-5.3-17.7-15.9-17.1-29.5
		c1.2-21.2-1.2-43.1,4.7-62.5c19.5-71.4,48.4-139.2,89.7-201.2c20.1,4.7,24.8,9.4,18.9,21.2c-9.4,20.1-20.6,40.1-31.3,59.6
		c-24.2,44.2-38.3,92-48.4,141c-2.4,11.2-0.6,23-0.6,36c30.7,14.8,60.8,18.9,92.6,8.9c15.9-4.7,31.9-8.9,48.4-10.6
		c6.5-0.6,15.9,3,19.5,7.7C1957.6,4904.6,1955.8,4913.5,1956.4,4921.7z"/>
	<path class="st0" d="M2200.1,4915.2c-2.4,4.7-4.1,10-7.7,14.8c-10,13-21.2,12.4-28.3-1.2c-3-5.3-3.5-11.8-7.1-16.5
		c-20.1-31.9-45.4-56-89.1-52.5c-3.5,8.9-7.7,18.3-13,29.5c-6.5-2.4-19.5-4.7-18.9-6.5c2.4-23-24.2-24.8-32.5-41.3
		c3-5.3,4.7-11.8,9.4-15.3c32.4-23,46.6-57.8,63.1-92c13.6-28.3,28.3-56,43.1-83.8c1.2-2.4,5.3-3,8.8-4.7c16.5,33-3,61.4-19.5,95
		c31.3-3,46.6-18.3,63.7-28.9c8.8-5.3,15.9-13.6,24.2-20.1c38.9-32.5,38.9-32.5,43.7-76.1c1.8-0.6,3.5-1.2,4.1-0.6
		c24.2,20.1,23.6,56.6-2.9,69.6c-10,5.3-18.9,11.2-23,19.5c-10,22.4-28.3,34.2-47.8,46c-23.6,13.6-46.6,27.7-68.4,43.7
		c-9.4,6.5-23.6,13-20.6,27.1c3.5,15.3,18.3,18.3,32.4,18.3c30.7,1.2,49.6,18.9,64.9,43.1
		C2184.7,4892.2,2191.2,4901.7,2200.1,4915.2z"/>
	<path class="st0" d="M2563.5,4894.6l-11.8,36c-21.2,11.2-41.9,8.3-60.8,3.5c-38.9-10.6-77.9-23.6-112.1-46.6
		c-21.8-14.2-40.1-30.7-54.3-53.1c-19.5-32.4-21.2-64.9-1.2-97.9c35.4-59,87.3-97.3,152.8-119.2c19.5-6.5,38.3-4.7,56.6,4.1
		c13,6.5,17.1,16.5,13,30.1c-6.5,20.7-19.5,37.8-35.4,51.3c-19.5,16.5-40.7,30.7-60.8,46.6c-19.5,15.9-43.7,24.2-62.5,42.5
		c-11.2,11.2-28.9,14.2-44.2,20.7c12.4,15.9,28.3,28.9,36.6,49.6c7.1,18.3,27.7,24.2,46,24.2c24.8,0,47.2,6.5,70.8,12.4
		C2516.9,4904,2537.5,4905.8,2563.5,4894.6z M2337.5,4781.3c1.2,10,3.5,20.1,5.3,30.1c3.5-8.8,5.3-19.5,11.8-26.5
		c12.4-13,26.5-24.2,40.7-35.4c31.9-24.8,64.9-48.4,96.2-73.8c7.7-5.9,12.4-15.3,18.9-23.6c-21.8-17.7-44.2-8.8-61.4-2.4
		c-15.9,6.5-36.6,10-45.4,33c-6.5,17.1-22.4,30.7-40.1,41.3C2342.2,4736.5,2334.6,4757.1,2337.5,4781.3z"/>
	<path class="st0" d="M2919.3,4758.9c-1.2,11.8-4.7,23.6-7.1,36c-8.8,4.7-17.1,9.4-25.4,14.2c2.4,11.2,9.4,6.5,14.2,7.1
		c1.2,2.4,4.1,5.3,3.5,7.7c-1.8,13.6-5.3,26.5-6.5,40.1c-0.6,11.2,0.6,22.4,1.2,37.8c-5.9,9.4-13,22.4-21.8,34.8
		c-5.3,7.1-19.5,4.7-23-4.1c-5.9-14.2-5.3-27.7,0.6-43.1c10-26.5,17.7-53.7,25.4-81.4c2.4-7.7,1.8-16.5,2.9-32.4
		c-13,13-20.7,19.5-27.1,27.1c-28.3,34.2-65.5,57.2-100.9,82.6c-10,7.1-26.5,0-27.7-12.4c-1.2-13.6-1.8-27.7,1.8-40.1
		c8.3-33.6,19.5-66.1,29.5-99.1c-9.4,1.2-17.1,3.5-23,11.8c-17.7,27.7-33.6,56.6-59.6,78.5c-7.1,5.9-8.9,18.3-13,27.7
		c-7.7,17.7-14.8,36-23.6,53.7c-3,6.5-11.8,11.2-18.9,6.5c-5.3-3.5-10.6-12.4-10-17.7c1.8-11.8,5.9-23,11.2-33.6
		c22.4-44.2,45.4-87.9,68.4-132.7c10-2.4,20.1-5.3,27.1-7.1c14.8-21.8,27.1-41.9,41.3-61.4c5.9-8.3,13-18.9,25.4-12.4
		c11.8,5.9,11.2,17.1,10,27.7c-2.4,17.7-5.3,35.4-8.8,55.5c-9.4,1.2-17.7,3-26,4.1c-2.4,13.6,10.6,14.2,18.3,21.8
		c-2.9,23.6-16.5,46.6-15.3,71.4c10,11.8,20.1,8.8,28.9,1.8c5.3-4.7,10-11.2,14.8-17.1l78.5-87.3c3.5-4.1,8.3-8.3,13-11.8
		c8.8-7.1,23-1.2,23.6,10.6S2921,4747.1,2919.3,4758.9z"/>
	<path class="st0" d="M3194.8,4921.1c0,18.9,0,37.8-18.9,56.6c0,0,0,18.9-18.9,37.8c0,0,0,18.9-18.9,18.9h-18.9c0,0,0,0,0-18.9
		v-56.6c0-18.9,0-37.8,0-75.5c-18.9-18.9-37.8-18.9-75.5-18.9c-18.9,18.9-18.9,37.8-18.9,37.8c-18.9,18.9-18.9,37.8-37.8,37.8h-18.9
		c18.9-18.9,18.9-18.9,18.9-37.8c18.9-18.9,18.9-37.8,18.9-56.6v-18.9c37.8-18.9,37.8-37.8,37.8-56.6c37.8-37.8,56.6-94.4,75.5-151
		c18.9-18.9,18.9-18.9,37.8-18.9c18.9,0,18.9,18.9,18.9,37.8s0,18.9-18.9,37.8c0,0-18.9,0-18.9-18.9v18.9
		c-18.9,37.8-18.9,56.6-37.8,75.5c-18.9,18.9-18.9,37.8-37.8,56.6v37.8c18.9,0,37.8,0,75.5,0c0-56.6,0-94.4,18.9-151v-18.9
		c0,18.9,0,18.9,18.9,37.8v18.9c0,37.8,0,75.5-18.9,113.3c0,18.9,18.9,18.9,18.9,18.9C3194.8,4883.4,3194.8,4902.2,3194.8,4921.1z
		 M3175.9,4902.2H3157c0,18.9,0,18.9,0,37.8v18.9c18.9,0,18.9-18.9,0-18.9C3157,4921.1,3175.9,4921.1,3175.9,4902.2z"/>
</g>
</svg>
