<svg id="Layer_1" data-name="Layer 1" xmlns="http://www.w3.org/2000/svg" viewBox="0 0 4193.97 5669.29"><defs><style>.cls-1{fill:blue;}.cls-2{fill:#fff;}</style></defs><title>rightArtboard 1</title><path class="cls-1" d="M2359.32,1978.09A3183.46,3183.46,0,0,1,2757.8,1915c-238-72.49-391.83-139.47-584.62-232.49-120.64-58.2-250.68-183.7-267.27-316.62-10.06-80.57,28.91-159.05,74.45-226.26,123.61-182.44,305.77-324.53,512.8-400-392.43,142.08-808,253.52-1223.2,211.52-197.67-20-393.33-79.33-566.13-177.94C540,679.69,463.65,615.9,298,422.3c30.46,131.52,8.8,291-119,365.84-54.86,32.13-116.54,44.7-180.24,47.14v2519c215.69-206.68,446.07-359.94,727.24-458.11,437.9-152.89,906.39,376,1303.46,615.68-74.07-80-237.65-406.89-176.44-622.94,31.8-112.24,253.09-204.5,361.9-162.44-143.28-112.86-302.3-264.35-269.29-443.74C1978.47,2103.81,2181.83,2017.88,2359.32,1978.09Z"/><path class="cls-2" d="M1024.2,1814.83c-49.16,0-93.9-19.64-120.11-57.81-47.32-68.9-16.61-172.48,68.46-230.9s192.76-49.89,240.08,19,16.6,172.49-68.45,230.9h0C1106.23,1802.09,1063.78,1814.83,1024.2,1814.83Zm68.41-316.76c-37.46,0-77.81,12.14-113.95,37-80.15,55-109.61,151.89-65.67,215.88s144.91,71.27,225.07,16.22h0c80.15-55.05,109.61-151.89,65.66-215.88C1179.59,1516.11,1138.24,1498.07,1092.61,1498.07Z"/><path class="cls-2" d="M854.19,1551.61c-21.48-18.35-29.23-36.26-22.41-51.8,6.75-15.39,25.4-20.49,40.93-18.69,7.33.85,14.36,2.83,21.15,4.75,6.59,1.86,12.82,3.62,19.2,4.38,11.22,1.34,25.35-1.86,30-12.06,4.17-9.17-1.2-20.5-8.37-26.5-8.63-7.23-20.73-10.14-31.43-12-15.07-2.67-26.44-3.28-36.86-2-13.39,1.66-26.45,6.8-39.07,11.76-64.1,25.19-130.37,51.24-186.57,92.83l-6.43-8.68c57.35-42.44,124.3-68.76,189-94.21,13.25-5.2,26.95-10.59,41.7-12.42,11.54-1.44,23.9-.8,40.08,2.07,12.1,2.14,25.9,5.53,36.47,14.38s17.72,25.08,11.27,39.25c-6.91,15.23-25.65,20.18-41.09,18.33-7.22-.87-14.15-2.82-20.85-4.71s-13-3.67-19.45-4.41c-11.19-1.29-25.3,2-29.81,12.29-6.27,14.27,9.55,30.72,19.53,39.24Z"/><path class="cls-2" d="M1276.38,2031.87l-10-4.13c12.22-29.55,13.23-61.31,14.29-94.94.64-20,1.29-40.68,4.55-60.73,2.81-17.21,7.58-34.15,12.19-50.54,4.19-14.88,8.52-30.28,11.28-45.62,2.18-12.13,4.46-30.11-1-46-4.23-12.46-15.19-25.9-30.16-27.86a26.77,26.77,0,0,0-20.56,6.78c-4.71,4.23-7.24,9.55-7.11,15,.08,3.77,1.28,7.63,2.56,11.73.64,2.06,1.28,4.12,1.8,6.2,4.76,19-.84,39.83-14.3,53-14.28,13.93-36.45,18-53.92,10l4.53-9.81c13.27,6.14,30.87,2.82,41.85-7.88,10.75-10.5,15.21-27.23,11.36-42.61-.47-1.88-1.06-3.75-1.64-5.61-1.44-4.63-2.92-9.41-3.05-14.7-.19-8.62,3.61-16.88,10.7-23.25a37.16,37.16,0,0,1,29.18-9.46c17.22,2.25,32.52,16,39,35.1,6.21,18.29,3.74,38.1,1.35,51.41-2.84,15.85-7.25,31.5-11.51,46.64-4.54,16.09-9.22,32.73-11.92,49.35-3.15,19.35-3.8,39.68-4.42,59.33C1290.44,1966.26,1289.36,2000.5,1276.38,2031.87Z"/><path class="cls-2" d="M971.08,1803a57.82,57.82,0,0,1-12.42-1.31l2.31-10.55c15.91,3.49,32.88-2.31,47.38-8.44,10.58-4.47,21.51-9.72,29.78-17.81s13.14-15.65,13.6-21.19-5-10.74-10.6-12.52c-6.47-2.06-13.71-1.32-21.39-.54l-1.16.12c-9,.91-18.53,1.47-27.32-2.46a31.49,31.49,0,0,1-18-30.66c.72-8.1,4.49-15.15,8.14-22,4-7.45,7.74-14.48,6.37-21.36a19.94,19.94,0,0,0-4.56-8.78c-5.63-6.73-12.35-10.15-20.56-10.45-17.25-.55-36.54,12.88-47.88,24.62-12,12.42-19.46,28.15-21,44.27L883,1703c1.77-18.56,10.28-36.58,24-50.76,13.17-13.63,34.25-27.93,54.52-27.93.51,0,1,0,1.52,0,11.28.4,20.86,5.22,28.46,14.31a30.59,30.59,0,0,1,6.86,13.6c2.13,10.67-2.73,19.76-7.44,28.56-3.27,6.13-6.37,11.93-6.9,17.82a20.65,20.65,0,0,0,11.64,19.85c6.36,2.85,14.26,2.33,21.81,1.57l1.15-.11c8.43-.87,17.15-1.77,25.78,1,9.69,3.11,19,12.24,18.07,23.69-.69,8.37-6.34,17.8-16.81,28-9.55,9.35-21.57,15.16-33.12,20C1000,1798,985.72,1803,971.08,1803Z"/><path class="cls-2" d="M1002.75,1625.87a5.4,5.4,0,0,1-2.87-10c10.18-6.38,20.71-13,29.3-21.33,6.44-6.27,14.55-16.39,16.63-29a81.54,81.54,0,0,0,.81-8.56c.15-2.62.32-5.33.69-8.07a63.27,63.27,0,0,1,4.47-16.17c5.81-13.73,16-24.42,27.88-29.31,14.07-5.78,30.74-2.9,40.56,7l-7.66,7.62c-6.83-6.87-18.68-8.77-28.79-4.61-9.3,3.82-17.33,12.4-22,23.52a52.36,52.36,0,0,0-3.73,13.41c-.31,2.35-.46,4.74-.61,7.28a94.15,94.15,0,0,1-.92,9.67c-1.78,10.73-7.21,21.33-15.82,30.9a44.27,44.27,0,0,1,11-2c7.46-.3,14.48,1.54,21.26,3.36,6.32,1.7,12.34,3.28,18.17,3,6.28-.33,25.39-1.33,33.65-9.57,10.94-10.9,20.25-27.75,13.58-42.35l9.82-4.49c9,19.63-2.26,41-15.77,54.49-10,10-28,12-40.72,12.7-7.58.38-14.67-1.5-21.53-3.34-6.25-1.67-12.17-3.27-18-3-8.64.38-17.24,5-24.82,9.06a63,63,0,0,1-11.9,5,52.91,52.91,0,0,0-10.1,4.2A5.45,5.45,0,0,1,1002.75,1625.87Z"/><path class="cls-2" d="M1023,1675.64l-3.85-10.09c27.1-10.33,54.11-21.91,80.29-34.43l4.66,9.75C1077.62,1653.51,1050.33,1665.21,1023,1675.64Z"/><path class="cls-2" d="M1147.21,1709.86c-5.64,0-11.58-2.3-17.32-6.75-10.73-8.3-19-23.2-20.12-36.25-.78-9.1,1.77-17.14,7.35-23.25l8,7.3c-3.54,3.87-5.08,8.93-4.55,15,1,11.44,8.77,23.07,16,28.63,2.94,2.28,7.35,4.88,11.7,4.44,3.1-.33,6.49-2.28,10.34-6,6.48-6.19,7-15.7,1.58-30-.48-1.27-1-2.55-1.48-3.82-2.88-7.35-5.87-14.94-6.14-23.35-.32-10.26,4.68-23,16.45-26.59,6.49-2,14.1-.72,21.41,3.63,14.15,8.4,23.48,25.06,25,44.56.62,8.14-3.29,11.13-5.68,12.19l-4.37-9.88a1.84,1.84,0,0,0-.85.75,6.07,6.07,0,0,0,.13-2.25c-1.19-15.75-8.73-29.57-19.69-36.08-4.6-2.73-9.24-3.67-12.72-2.59-6,1.85-9,9.58-8.83,15.91.21,6.55,2.73,13,5.39,19.75.52,1.31,1,2.63,1.53,3.94,2.59,6.82,10.46,27.58-4.22,41.6-5.65,5.38-11.1,8.29-16.66,8.88A19,19,0,0,1,1147.21,1709.86Z"/><path class="cls-2" d="M834.82,2549a4.36,4.36,0,0,1-.51,0,5.39,5.39,0,0,1-4.73-4.05,1119.83,1119.83,0,0,1-34.07-247.61,615.74,615.74,0,0,0-94,135,5.4,5.4,0,0,1-10.18-3c4.15-40.67-6.51-82.67-16.83-118.84-5.34-18.69-11.29-38.49-20.13-56.95-9.29-19.43-20-39.05-30.4-58-6.21-11.35-12.63-23.08-18.63-34.56-11.51-22.07-31.37-40.09-50.57-57.52-13.64-12.38-27.74-25.18-39-39.48-33.86-43.09-51.72-101-50.29-163,1.28-55.72,12.06-104,60.52-158.47l8.07,7.18c-46.26,52-56.56,98.2-57.79,151.54-1.38,59.52,15.67,115,48,156.07,10.68,13.59,24.44,26.08,37.74,38.16C582,2113.55,602.56,2132.23,615,2156c5.95,11.39,12.34,23.07,18.52,34.37,10.45,19.09,21.26,38.84,30.68,58.54,9.2,19.21,15.3,39.51,20.76,58.64,8.64,30.25,17.5,64.51,18.14,99.19a626.7,626.7,0,0,1,93.69-126.53,5.4,5.4,0,0,1,9.3,3.66,1108.07,1108.07,0,0,0,30,242.22c7.4-21.51,10.5-44.33,12.64-66.17q.51-5.21,1-10.42c1.8-19.63,3.68-39.93,9.38-59.34,10.66-36.23,35.4-70.27,69.67-95.86,28.7-21.42,65-37.87,107.87-48.91,8.79-2.25,17.77-4.28,26.46-6.24,22.48-5.06,45.72-10.3,66.69-19.93,45.4-20.83,82.87-63.45,105.52-120l10,4c-23.68,59.13-63.12,103.81-111,125.8-22,10.1-45.8,15.46-68.82,20.65-8.61,1.94-17.52,3.95-26.15,6.17-41.51,10.68-76.53,26.52-104.1,47.1-32.41,24.2-55.76,56.24-65.76,90.24-5.41,18.41-7.24,38.18-9,57.29-.32,3.5-.64,7-1,10.49-2.76,28-7.06,57.74-19.75,84.94A5.41,5.41,0,0,1,834.82,2549Z"/><path class="cls-1" d="M827.41,4502.41c94.38,0,168.3-42.75,197.32-58.79,3-2.29,4.58-7.63,4.58-12.21,0-6.87-3.82-14.51-13.75-14.51-2.29,0-6.1,1.53-8.39,2.29-21.38,11.45-85.38,53.45-179.76,53.45-36.64,0-77.87-6.11-135.13-15.27-32.83-5.35-66.42-10.69-95.43-10.69C548,4446.68,493,4465,493,4514.62c0,27.49,21.37,54.21,45,54.21,9.93,0,17.56-6.87,17.56-15.27,0-7.63-5.34-13.74-13-13.74-13,0-19.85-12.22-19.85-25.2,0-25.19,32.07-37.4,72.53-37.4,31.3,0,69.48,5.34,109.17,12.21L727.4,4494c-9.16,16-19.09,44.28-32.07,74.06l-19.08,46.57c-17.56,40.46-36.65,87-55,131.31-2.29,6.87-6.87,16.8-9.16,22.91L548,4920.78a18.33,18.33,0,0,0-1.53,7.64c0,6.87,6.11,13,15.27,13a14.55,14.55,0,0,0,13-8.4l64.13-151.93,32.06-77.87c10.69-26.72,21.38-51.92,32.07-77.11,30.54-74.06,44.28-111.47,55.73-128.26A528.68,528.68,0,0,0,827.41,4502.41Z"/><path class="cls-1" d="M2152,4801.68a15.54,15.54,0,0,0-11.45,4.58c-51.91,56.5-85.51,80.17-130.55,106.89,22.9-55.73,38.94-93.91,71-174.83a33.59,33.59,0,0,0,2.29-10.69c0-8.4-6.11-15.27-14.5-15.27-5.35,0-11.46,3.82-13.75,8.4-41.22,69.47-135.13,190.86-173.3,190.86-2.29,0-3.82-3.82-3.82-7.63,0-14.51,10.69-42.76,26-84.75,11.45-30.54,21.38-59.55,21.38-81.69,0-19.08-8.4-39.7-34.36-39.7s-52.68,32.07-117.57,109.18a7.4,7.4,0,0,0-1.93,2.23c-40.27,44.8-95.44,105.41-114.11,105.41-1.53,0-2.3-2.29-2.3-6.1,0-16.8,14.51-53.45,29-85.51,19.85-46.57,26.72-69.47,26.72-83.22,0-27.48-16-45-43.52-45a80.89,80.89,0,0,0-23.67,3.82c-17.56,6.1-47.33,29.77-77.11,62.6l9.16-26,30.54-35.12,45.81-51.91c45-50.39,84.74-117.57,95.43-145.82,1.53-4.58,2.29-11.45,2.29-17.56,0-19.85-13.74-41.23-35.12-41.23-14.5,0-35.88,12.22-53.44,37.41-20.61,32.83-58.78,113-109.94,238.2-21.37,24.43-46.57,51.91-76.34,87l0,.06c-54.18,62.58-105.32,109.12-159.51,109.12-20.61,0-32.06-13.74-32.06-38.17,0-36.65,24.43-90.09,68.71-132.85,11.45-11.45,23.66-17.55,32.82-17.55,12.22,0,16,11.45,16,22.9,0,1.53-.77,3-.77,4.58-.76,2.29-.76,6.87-.76,9.92,0,7.64,6.11,14.51,15.27,14.51,13.74,0,16-15.27,16-26.72,0-31.3-13.74-55-45.81-55-17.56,0-36.64,9.16-54.2,25.19a268.64,268.64,0,0,0-58.26,81.77,15.79,15.79,0,0,0-2.81,2.21c-48.86,54.21-99.25,108.42-117.57,108.42-2.29,0-3.06-2.3-3.06-6.11,0-20.62,25.2-81.69,41.23-118.34,9.92-22.9,18.32-48.1,27.48-68.71,2.29-4.58,3.06-7.63,3.06-10.69,0-5.34-3.82-13.74-15.27-13.74-6.11,0-10.69,4.58-13,9.16-20.61,37.41-66.42,109.18-109.94,158-24.43,25.95-50.39,48.09-68.71,48.09q-6.87,0-6.87-9.16c0-20.61,14.51-58,31.3-97.72l26.72-63.37c3.06-7.63,6.11-13.74,8.4-18.32a24,24,0,0,0,3-9.16c0-7.63-5.34-16-13.74-16-11.45,0-13.74,7.63-18.32,16-10.54,20.32-27.8,44.39-67.77,89.67a14.39,14.39,0,0,0-2.46,1.94c-35.12,40.47-61.84,58.79-84.74,58.79H887c21.37-32.83,39.7-70.24,39.7-113,0-22.14-6.87-59.55-38.94-59.55-47.33,0-72.53,77.11-72.53,116,0,29,9.16,53.45,24.43,67.95-16.79,16-42.75,37.41-66.42,37.41-19.08,0-28.25-19.09-28.25-39.7,0-44.28,32.07-111.46,87-148.11,4.58-3.82,6.87-8.4,6.87-13,0-6.87-6.87-14.5-15.27-14.5-2.29,0-6.11,2.29-9.92,3.81-64.9,42.76-98.49,119.87-98.49,171.78,0,33.59,17.56,69.48,58,69.48,35.12,0,67.95-24.43,93.14-51.92,6.88,2.29,13.75,3,22.14,3,39.1,0,73.75-31.11,105.43-66.33a27,27,0,0,0,3.74-3.14c-13.74,33.59-20.62,58-20.62,77.11,0,9.92,1.53,18.32,6.11,25.19,4.58,6.11,13,14.51,31.3,14.51,26-.76,60.32-26.72,87.8-55.73,9.93-10.69,21.38-24.43,31.3-36.65-7.63,21.38-14.5,44.28-14.5,58,0,15.27,6.87,24.43,12.21,29,4.58,3.81,10.69,7.63,19.85,7.63,31.4,0,71.92-42.08,103.62-78.28-.33,3.76-.56,7.48-.56,11.1,0,38.93,18.33,67.94,59.55,67.94,70.24,0,123.68-55.73,182.47-118.33h0l19.07-21.37-35.12,88.56c-6.1,14.51-15.27,34.36-15.27,40.46,0,13,15.27,15.27,17.56,15.27,9.17,0,15.27-16.79,20.62-30.53l4.58-13.75c42.75-97.72,119.86-170.25,144.29-177.88a44.62,44.62,0,0,1,15.27-3.06q13.74,0,13.74,16c0,9.16-6.11,32.83-23.66,71-19.09,40.46-32.07,74.82-32.07,97.72,0,16,9.92,35.12,30.54,35.12,34.35,0,93.14-64.89,139.71-117.57a13.24,13.24,0,0,0,3-5.2l20.67-24.58c25.19-30.54,57.25-70.24,71-70.24,3.81,0,5.34,5.35,5.34,10.69,0,16.8-11.45,47.34-20.61,74.06-10.69,29.77-26.72,65.65-26.72,93.9,0,19.09,9.16,35.12,33.59,35.12,35.88,0,87.8-53.44,125.21-99.25-15.27,38.94-18.33,48.1-38.94,97-32.83,19.85-75.58,48.86-110.7,78.64-28.25,24.43-64.13,59.55-64.13,102.3,0,28.25,22.14,55,52.68,55,45.8,0,75.58-48.86,94.67-90.85,6.87-16,14.5-32.83,50.38-124.45,58.79-34.35,119.87-74.05,171-132.07,1.52-2.29,3.81-6.87,3.81-9.93C2165.72,4810.08,2161.91,4801.68,2152,4801.68Zm-465.7-304.62c11.45-16.79,20.61-23.66,28.24-23.66,3.82,0,5.35,6.11,5.35,11.45a38.81,38.81,0,0,1-1.53,9.92c-3.82,13-21.38,46.57-55,91.62-14.5,19.85-31.3,39.7-51.91,63.37C1644.29,4572.65,1668.72,4522.26,1686.28,4497.06ZM858.71,4852.83C847.26,4841.38,845,4820,845,4808.55c0-29,17.56-86.27,42.75-86.27,8.4,0,9.16,21.38,9.16,30.54C896.88,4785.65,878.56,4823.82,858.71,4852.83ZM1913,5072.71c-20.61,45-41.23,71.76-66.42,71.76-13.74,0-23.67-11.45-23.67-25.95,0-26,27.49-57.26,52.68-79.4,21.38-19.09,47.34-37.41,71.77-53.44C1932.87,5022.32,1923.71,5049,1913,5072.71Z"/></svg>